<?xml version="1.0" encoding="UTF-8"?>
<svg id="Layer_1" data-name="Layer 1" xmlns="http://www.w3.org/2000/svg" width="2048" height="2048" viewBox="0 0 2048 2048">
  <defs>
    <style>
      .cls-1 {
        fill: #fff;
      }

      .cls-1, .cls-2 {
        fill-rule: evenodd;
      }

      .cls-3, .cls-2 {
        fill: #f7d447;
      }
    </style>
  </defs>
  <rect class="cls-3" width="2048" height="2048"/>
  <path class="cls-1" d="M1231.03,557.17v-121.41c59.4,14.53,102.97,34.35,149.17,59.51v113.44c-46.17-21.12-96.35-39.61-149.17-51.54h0Z"/>
  <path class="cls-1" d="M1143.86,1168.34l7.94-248.12c0-15.86,11.85-27.71,26.41-27.71,15.89,0,26.35,11.87,26.35,27.71l9.32,248.12h-70.03Z"/>
  <path class="cls-1" d="M1178.21,1642.27c-85.78,0-145.23-25.08-213.88-60.73-60.7-31.59-120.1-51.48-198.02-51.48-72.55,0-159.69,18.46-253.41,76.64,77.89-116.2,180.86-150.55,277.19-150.55,102.97,0,183.49,31.67,256.12,68.7,67.29,34.22,120.1,51.4,194.06,51.4,62.03,0,130.65-17.16,195.34-71.22-80.49,105.57-174.22,137.24-257.39,137.24h0Z"/>
  <path class="cls-1" d="M1231.03,583.61c-31.69-7.94-65.99-13.2-100.31-17.13v-151.8c-38.05-5.35-76.42-8-114.84-7.94-37.01,0-73.96,2.68-109.56,6.64v143.83c-34.32,4.01-67.37,10.63-99.04,18.49v-142.5c-55.72,15.44-109.35,37.6-159.71,65.99v295.7l67.29,64.66-19.79,332.58-54.11,54.17v192.71l18.49,19.82c44.87-23.7,101.61-43.54,170.26-43.54s142.58,18.41,228.39,66.04v-245.52l-35.62-44.98v-340.55l69.97-108.26-29.09,104.24c20.15-2.62,40.44-3.91,60.76-3.88,68.62,0,131.95,11.82,186.12,33.02l69.95-64.69v-175.55c-46.14-21.17-96.33-38.36-149.14-51.56Z"/>
  <path class="cls-2" d="M811.21,1168.34l7.94-248.12c0-15.86,11.85-27.71,26.43-27.71s26.41,11.87,26.41,27.71l9.24,248.12h-70.03Z"/>
</svg>